<?xml version="1.0" encoding="UTF-8" standalone="no"?>
<!DOCTYPE svg PUBLIC "-//W3C//DTD SVG 1.1//EN" "http://www.w3.org/Graphics/SVG/1.1/DTD/svg11.dtd">
<!-- Generated by Microsoft Visio, SVG Export prototype_eorm.svg Page-1 -->
<svg xmlns="http://www.w3.org/2000/svg" xmlns:xlink="http://www.w3.org/1999/xlink" xmlns:ev="http://www.w3.org/2001/xml-events"
		xmlns:v="http://schemas.microsoft.com/visio/2003/SVGExtensions/" width="11.6929in" height="8.26772in"
		viewBox="0 0 841.89 595.276" xml:space="preserve" color-interpolation-filters="sRGB" class="st11">
	<v:documentProperties v:langID="2057" v:metric="true" v:viewMarkup="false">
		<v:userDefs>
			<v:ud v:nameU="msvNoAutoConnect" v:val="VT0(1):26"/>
		</v:userDefs>
	</v:documentProperties>

	<style type="text/css">
	<![CDATA[
		.st1 {fill:#ffffff;stroke:#000000;stroke-linecap:round;stroke-linejoin:round;stroke-width:0.75}
		.st2 {fill:#000000;font-family:Calibri;font-size:1.00001em}
		.st3 {font-size:1em}
		.st4 {fill:#ffffff;stroke:#000000;stroke-linecap:round;stroke-linejoin:round;stroke-width:1}
		.st5 {fill:none;stroke:#000000;stroke-linecap:round;stroke-linejoin:round;stroke-width:0.75}
		.st6 {fill:none;stroke:none;stroke-linecap:round;stroke-linejoin:round;stroke-width:0.75}
		.st7 {fill:#000000;font-family:Calibri;font-size:1.00001em;font-weight:bold}
		.st8 {fill:#ffffff}
		.st9 {stroke:#000000;stroke-linecap:round;stroke-linejoin:round;stroke-width:0.75}
		.st10 {fill:none;stroke:#000000;stroke-dasharray:5.25,3.75;stroke-linecap:round;stroke-linejoin:round;stroke-width:0.75}
		.st11 {fill:none;fill-rule:evenodd;font-size:12px;overflow:visible;stroke-linecap:square;stroke-miterlimit:3}
	]]>
	</style>

	<g v:mID="0" v:index="1" v:groupContext="foregroundPage">
		<title>Page-1</title>
		<v:pageProperties v:drawingScale="0.0393701" v:pageScale="0.0393701" v:drawingUnits="24" v:shadowOffsetX="8.50394"
				v:shadowOffsetY="-8.50394"/>
		<v:layer v:name="Flowchart" v:index="0"/>
		<g id="shape1-1" v:mID="1" v:groupContext="shape" transform="translate(581.102,-531.496)">
			<title>Initial node</title>
			<v:userDefs>
				<v:ud v:nameU="visVersion" v:prompt="" v:val="VT0(15):26"/>
			</v:userDefs>
			<ellipse cx="7.08661" cy="588.189" rx="7.08661" ry="7.08661" class="st1"/>
		</g>
		<g id="shape7-3" v:mID="7" v:groupContext="shape" transform="translate(368.504,-401.126)">
			<title>Action</title>
			<desc>Read local lastrun.txt</desc>
			<v:userDefs>
				<v:ud v:nameU="visVersion" v:prompt="" v:val="VT0(15):26"/>
			</v:userDefs>
			<v:textBlock v:margins="rect(4,4,4,4)" v:tabSpace="42.5197"/>
			<v:textRect cx="56.6929" cy="578.268" width="113.39" height="34.0157"/>
			<rect x="0" y="561.26" width="113.386" height="34.0157" rx="8.50394" ry="8.50394" class="st1"/>
			<text x="5.24" y="581.87" class="st2" v:langID="2057"><v:paragraph v:horizAlign="1"/><v:tabList/>Read local lastrun.txt</text>		</g>
		<g id="shape15-6" v:mID="15" v:groupContext="shape" transform="translate(532.913,-399.732)">
			<title>Action.15</title>
			<desc>Read archive lastrun.txt</desc>
			<v:userDefs>
				<v:ud v:nameU="visVersion" v:prompt="" v:val="VT0(15):26"/>
			</v:userDefs>
			<v:textBlock v:margins="rect(4,4,4,4)" v:tabSpace="42.5197"/>
			<v:textRect cx="56.6929" cy="576.874" width="113.39" height="36.8038"/>
			<rect x="0" y="558.472" width="113.386" height="36.8038" rx="8.50394" ry="8.50394" class="st1"/>
			<text x="25.34" y="573.27" class="st2" v:langID="2057"><v:paragraph v:horizAlign="1"/><v:tabList/>Read archive <tspan
						x="31.56" dy="1.2em" class="st3">lastrun</tspan>.txt</text>		</g>
		<g id="shape16-10" v:mID="16" v:groupContext="shape" transform="translate(532.913,772.418) rotate(180)">
			<title>Modern Arrow.16</title>
			<v:userDefs>
				<v:ud v:nameU="CtrlAngle" v:prompt="" v:val="VT0(0.78539816339745):32"/>
				<v:ud v:nameU="visVersion" v:prompt="" v:val="VT0(15):26"/>
			</v:userDefs>
			<path d="M0 595.28 L8.5 586.77 L0 595.28 L51.02 595.28 L0 595.28 L8.5 603.78 L0 595.28 Z" class="st4"/>
		</g>
		<g id="shape17-12" v:mID="17" v:groupContext="shape" transform="translate(532.913,-296.244)">
			<title>Action.17</title>
			<desc>Loop over difference in run number</desc>
			<v:userDefs>
				<v:ud v:nameU="visVersion" v:prompt="" v:val="VT0(15):26"/>
			</v:userDefs>
			<v:textBlock v:margins="rect(4,4,4,4)" v:tabSpace="42.5197"/>
			<v:textRect cx="56.6929" cy="576.874" width="113.39" height="36.8038"/>
			<rect x="0" y="558.472" width="113.386" height="36.8038" rx="8.50394" ry="8.50394" class="st1"/>
			<text x="6.1" y="573.27" class="st2" v:langID="2057"><v:paragraph v:horizAlign="1"/><v:tabList/>Loop over difference <tspan
						x="21.73" dy="1.2em" class="st3">in run number</tspan></text>		</g>
		<g id="shape18-16" v:mID="18" v:groupContext="shape" transform="translate(-5.66929,262.228) rotate(-90)">
			<title>Modern Arrow.18</title>
			<v:userDefs>
				<v:ud v:nameU="CtrlAngle" v:prompt="" v:val="VT0(0.78539816339745):32"/>
				<v:ud v:nameU="visVersion" v:prompt="" v:val="VT0(15):26"/>
			</v:userDefs>
			<path d="M0 595.28 L8.5 586.77 L0 595.28 L66.68 595.28 L0 595.28 L8.5 603.78 L0 595.28 Z" class="st4"/>
		</g>
		<g id="shape20-18" v:mID="20" v:groupContext="shape" transform="translate(362.835,-296.337)">
			<title>Action.20</title>
			<desc>Submit all runs in range</desc>
			<v:userDefs>
				<v:ud v:nameU="visVersion" v:prompt="" v:val="VT0(15):26"/>
			</v:userDefs>
			<v:textBlock v:margins="rect(4,4,4,4)" v:tabSpace="42.5197"/>
			<v:textRect cx="56.6929" cy="576.874" width="113.39" height="36.8038"/>
			<rect x="0" y="558.472" width="113.386" height="36.8038" rx="8.50394" ry="8.50394" class="st1"/>
			<text x="14.48" y="573.27" class="st2" v:langID="2057"><v:paragraph v:horizAlign="1"/><v:tabList/>Submit all runs in <tspan
						x="42.77" dy="1.2em" class="st3">range</tspan></text>		</g>
		<g id="shape21-22" v:mID="21" v:groupContext="shape" transform="translate(477.199,-314.738) rotate(0.0941384)">
			<title>Modern Arrow.21</title>
			<v:userDefs>
				<v:ud v:nameU="CtrlAngle" v:prompt="" v:val="VT0(0.78539816339745):32"/>
				<v:ud v:nameU="visVersion" v:prompt="" v:val="VT0(15):26"/>
			</v:userDefs>
			<path d="M0 595.28 L8.5 586.77 L0 595.28 L56.69 595.28 L0 595.28 L8.5 603.78 L0 595.28 Z" class="st4"/>
		</g>
		<g id="shape22-24" v:mID="22" v:groupContext="shape" transform="translate(362.835,-181.33)">
			<title>Action.22</title>
			<desc>Update local lastrun.txt with the last run submitted</desc>
			<v:userDefs>
				<v:ud v:nameU="visVersion" v:prompt="" v:val="VT0(15):26"/>
			</v:userDefs>
			<v:textBlock v:margins="rect(4,4,4,4)" v:tabSpace="42.5197"/>
			<v:textRect cx="56.6929" cy="569.674" width="113.39" height="51.2039"/>
			<rect x="0" y="544.072" width="113.386" height="51.2039" rx="8.50394" ry="8.50394" class="st1"/>
			<text x="25.98" y="558.87" class="st2" v:langID="2057"><v:paragraph v:horizAlign="1"/><v:tabList/>Update local <tspan
						x="9.87" dy="1.2em" class="st3">lastrun</tspan>.txt with the <tspan x="12" dy="1.2em" class="st3">last run submitted</tspan></text>		</g>
		<g id="shape23-29" v:mID="23" v:groupContext="shape" transform="translate(-175.748,362.741) rotate(-90)">
			<title>Modern Arrow.23</title>
			<v:userDefs>
				<v:ud v:nameU="CtrlAngle" v:prompt="" v:val="VT0(0.78539816339745):32"/>
				<v:ud v:nameU="visVersion" v:prompt="" v:val="VT0(15):26"/>
			</v:userDefs>
			<path d="M0 595.28 L8.5 586.77 L0 595.28 L63.8 595.28 L0 595.28 L8.5 603.78 L0 595.28 Z" class="st4"/>
		</g>
		<g id="shape26-31" v:mID="26" v:groupContext="shape" transform="translate(240.945,-85.0394)">
			<title>Action.26</title>
			<v:userDefs>
				<v:ud v:nameU="visVersion" v:prompt="" v:val="VT0(15):26"/>
			</v:userDefs>
			<rect x="0" y="113.386" width="538.583" height="481.89" rx="8.50394" ry="8.50394" class="st5"/>
		</g>
		<g id="shape27-33" v:mID="27" v:groupContext="shape" transform="translate(240.945,-524.409)">
			<title>Sheet.27</title>
			<desc>EoRM</desc>
			<v:textBlock v:margins="rect(4,4,4,4)" v:tabSpace="42.5197"/>
			<v:textRect cx="48.189" cy="579.685" width="96.38" height="31.1811"/>
			<rect x="0" y="564.094" width="96.378" height="31.1811" class="st6"/>
			<text x="33.41" y="583.29" class="st7" v:langID="2057"><v:paragraph v:horizAlign="1"/><v:tabList/>EoRM</text>		</g>
		<g id="shape30-36" v:mID="30" v:groupContext="shape" transform="translate(589.606,-199.846)">
			<title>Final node</title>
			<v:userDefs>
				<v:ud v:nameU="visVersion" v:prompt="" v:val="VT0(15):26"/>
			</v:userDefs>
			<path d="M12.76 588.19 A5.66929 5.66929 -180 1 0 1.42 588.19 A5.66929 5.66929 -180 1 0 12.76 588.19 Z" class="st8"/>
			<path d="M14.17 588.19 A7.08661 7.08661 -180 1 0 0 588.19 A7.08661 7.08661 -180 1 0 14.17 588.19" class="st9"/>
			<path d="M12.76 588.19 A5.66929 5.66929 -180 1 0 1.42 588.19 A5.66929 5.66929 -180 1 0 12.76 588.19" class="st9"/>
		</g>
		<g id="shape31-40" v:mID="31" v:groupContext="shape" transform="translate(589.606,983.619) rotate(180)">
			<title>Modern Arrow.31</title>
			<v:userDefs>
				<v:ud v:nameU="CtrlAngle" v:prompt="" v:val="VT0(0.78539816339745):32"/>
				<v:ud v:nameU="visVersion" v:prompt="" v:val="VT0(15):26"/>
			</v:userDefs>
			<path d="M0 595.28 L8.5 586.77 L0 595.28 L113.39 595.28 L0 595.28 L8.5 603.78 L0 595.28 Z" class="st4"/>
		</g>
		<g id="shape32-42" v:mID="32" v:groupContext="shape" transform="translate(39.685,-308.976)">
			<title>Action.32</title>
			<desc>Task Scheduler</desc>
			<v:userDefs>
				<v:ud v:nameU="visVersion" v:prompt="" v:val="VT0(15):26"/>
			</v:userDefs>
			<v:textBlock v:margins="rect(4,4,4,4)" v:tabSpace="42.5197"/>
			<v:textRect cx="56.6929" cy="578.268" width="113.39" height="34.0157"/>
			<rect x="0" y="561.26" width="113.386" height="34.0157" rx="8.50394" ry="8.50394" class="st1"/>
			<text x="20.27" y="581.87" class="st2" v:langID="2057"><v:paragraph v:horizAlign="1"/><v:tabList/>Task Scheduler</text>		</g>
		<g id="shape33-45" v:mID="33" v:groupContext="shape" transform="translate(240.945,864.567) rotate(180)">
			<title>Modern Arrow.33</title>
			<v:userDefs>
				<v:ud v:nameU="CtrlAngle" v:prompt="" v:val="VT0(0.78539816339745):32"/>
				<v:ud v:nameU="visVersion" v:prompt="" v:val="VT0(15):26"/>
			</v:userDefs>
			<path d="M0 595.28 L8.5 586.77 L0 595.28 L87.87 595.28 L0 595.28 L8.5 603.78 L0 595.28 Z" class="st4"/>
		</g>
		<g id="shape34-47" v:mID="34" v:groupContext="shape" transform="translate(155.906,-331.7)">
			<title>Sheet.34</title>
			<desc>Every 10 seconds</desc>
			<v:textBlock v:margins="rect(4,4,4,4)" v:tabSpace="42.5197"/>
			<v:textRect cx="38.2677" cy="574.016" width="76.54" height="42.5197"/>
			<rect x="0" y="552.756" width="76.5354" height="42.5197" class="st6"/>
			<text x="17.4" y="570.42" class="st2" v:langID="2057"><v:paragraph v:horizAlign="1"/><v:tabList/>Every 10 <tspan
						x="18.58" dy="1.2em" class="st3">seconds</tspan></text>		</g>
		<g id="shape39-51" v:mID="39" v:groupContext="shape" transform="translate(253.701,-113.386)">
			<title>Action.39</title>
			<v:userDefs>
				<v:ud v:nameU="visVersion" v:prompt="" v:val="VT0(15):26"/>
			</v:userDefs>
			<rect x="0" y="226.772" width="511.654" height="368.504" rx="8.50394" ry="8.50394" class="st10"/>
		</g>
		<g id="shape40-53" v:mID="40" v:groupContext="shape" transform="translate(389.764,-476.22)">
			<title>Join node</title>
			<desc>Instrument</desc>
			<v:userDefs>
				<v:ud v:nameU="visVersion" v:prompt="" v:val="VT0(15):26"/>
			</v:userDefs>
			<v:textBlock v:margins="rect(4,4,4,4)" v:tabSpace="42.5197"/>
			<v:textRect cx="35.4331" cy="586.772" width="70.87" height="17.0079"/>
			<rect x="0" y="578.268" width="70.8661" height="17.0079" class="st1"/>
			<text x="8.23" y="590.37" class="st2" v:langID="2057"><v:paragraph v:horizAlign="1"/><v:tabList/>Instrument</text>		</g>
		<g id="shape41-56" v:mID="41" v:groupContext="shape" transform="translate(-170.079,160.134) rotate(-90)">
			<title>Modern Arrow.41</title>
			<v:userDefs>
				<v:ud v:nameU="CtrlAngle" v:prompt="" v:val="VT0(0.78539816339745):32"/>
				<v:ud v:nameU="visVersion" v:prompt="" v:val="VT0(15):26"/>
			</v:userDefs>
			<path d="M0 595.28 L8.5 586.77 L0 595.28 L41.08 595.28 L0 595.28 L8.5 603.78 L0 595.28 Z" class="st4"/>
		</g>
		<g id="shape42-58" v:mID="42" v:groupContext="shape" transform="translate(255.118,-457.717)">
			<title>Sheet.42</title>
			<desc>«iterative»</desc>
			<v:textBlock v:margins="rect(4,4,4,4)" v:tabSpace="42.5197"/>
			<v:textRect cx="48.189" cy="585.276" width="96.38" height="20"/>
			<rect x="0" y="575.276" width="96.378" height="20" class="st6"/>
			<text x="20.64" y="588.88" class="st7" v:langID="2057"><v:paragraph v:horizAlign="1"/><v:tabList/>«iterative»</text>		</g>
		<g id="shape43-61" v:mID="43" v:groupContext="shape" transform="translate(345.827,-520.181)">
			<title>Action.43</title>
			<desc>Apply file lock (Using filelock library)</desc>
			<v:userDefs>
				<v:ud v:nameU="visVersion" v:prompt="" v:val="VT0(15):26"/>
			</v:userDefs>
			<v:textBlock v:margins="rect(4,4,4,4)" v:tabSpace="42.5197"/>
			<v:textRect cx="79.3701" cy="576.874" width="158.75" height="36.8038"/>
			<rect x="0" y="558.472" width="158.74" height="36.8038" rx="8.50394" ry="8.50394" class="st1"/>
			<text x="9.95" y="573.27" class="st2" v:langID="2057"><v:paragraph v:horizAlign="1"/><v:tabList/>Apply file lock (Using filelock <tspan
						x="61.87" dy="1.2em" class="st3">library</tspan>)</text>		</g>
		<g id="shape44-65" v:mID="44" v:groupContext="shape" transform="translate(504.567,-538.583)">
			<title>Modern Arrow.44</title>
			<v:userDefs>
				<v:ud v:nameU="CtrlAngle" v:prompt="" v:val="VT0(0.78539816339745):32"/>
				<v:ud v:nameU="visVersion" v:prompt="" v:val="VT0(15):26"/>
			</v:userDefs>
			<path d="M0 595.28 L8.5 586.77 L0 595.28 L76.54 595.28 L0 595.28 L8.5 603.78 L0 595.28 Z" class="st4"/>
		</g>
		<g id="shape45-67" v:mID="45" v:groupContext="shape" transform="translate(-170.079,102.047) rotate(-90)">
			<title>Modern Arrow.45</title>
			<v:userDefs>
				<v:ud v:nameU="CtrlAngle" v:prompt="" v:val="VT0(0.78539816339745):32"/>
				<v:ud v:nameU="visVersion" v:prompt="" v:val="VT0(15):26"/>
			</v:userDefs>
			<path d="M0 595.28 L8.5 586.77 L0 595.28 L26.95 595.28 L0 595.28 L8.5 603.78 L0 595.28 Z" class="st4"/>
		</g>
	</g>
</svg>
