<?xml version="1.0" encoding="UTF-8" standalone="no"?>
<!DOCTYPE svg PUBLIC "-//W3C//DTD SVG 1.1//EN" "http://www.w3.org/Graphics/SVG/1.1/DTD/svg11.dtd">
<!-- Generated by Microsoft Visio, SVG Export proposal_ingest.svg Page-1 -->
<svg xmlns="http://www.w3.org/2000/svg" xmlns:xlink="http://www.w3.org/1999/xlink" xmlns:ev="http://www.w3.org/2001/xml-events"
		xmlns:v="http://schemas.microsoft.com/visio/2003/SVGExtensions/" width="11.6929in" height="8.26772in"
		viewBox="0 0 841.89 595.276" xml:space="preserve" color-interpolation-filters="sRGB" class="st17">
	<v:documentProperties v:langID="1033" v:metric="true" v:viewMarkup="false">
		<v:userDefs>
			<v:ud v:nameU="msvSubprocessMaster" v:prompt="" v:val="VT4(Rectangle)"/>
			<v:ud v:nameU="msvNoAutoConnect" v:val="VT0(1):26"/>
		</v:userDefs>
	</v:documentProperties>

	<style type="text/css">
	<![CDATA[
		.st1 {stroke:#000000;stroke-linecap:round;stroke-linejoin:round;stroke-width:0.24}
		.st2 {fill:#ffffff;stroke:none;stroke-linecap:butt}
		.st3 {fill:#000000;font-family:Calibri;font-size:1.16666em}
		.st4 {visibility:visible}
		.st5 {fill:#5b9bd5;fill-opacity:0.22;filter:url(#filter_2);stroke:#5b9bd5;stroke-opacity:0.22}
		.st6 {fill:#ffffff;stroke:#000000;stroke-width:0.25}
		.st7 {fill:#000000;font-family:Calibri;font-size:0.833336em}
		.st8 {font-size:1em}
		.st9 {marker-end:url(#mrkr4-26);stroke:#000000;stroke-linecap:round;stroke-linejoin:round;stroke-width:1}
		.st10 {fill:#000000;fill-opacity:1;stroke:#000000;stroke-opacity:1;stroke-width:0.28409090909091}
		.st11 {fill:#ffffff;stroke:none;stroke-linecap:butt;stroke-width:7.2}
		.st12 {fill:#000000;font-family:Calibri;font-size:0.916672em}
		.st13 {fill:#000000;font-family:Calibri;font-size:0.666664em}
		.st14 {fill:#000000;font-family:Calibri;font-size:1.00001em}
		.st15 {fill:none;stroke:none;stroke-width:0.25}
		.st16 {fill:#000000;font-family:Calibri;font-size:1.16666em;font-weight:bold}
		.st17 {fill:none;fill-rule:evenodd;font-size:12px;overflow:visible;stroke-linecap:square;stroke-miterlimit:3}
	]]>
	</style>

	<defs id="Markers">
		<g id="lend4">
			<path d="M 2 1 L 0 0 L 2 -1 L 2 1 " style="stroke:none"/>
		</g>
		<marker id="mrkr4-26" class="st10" v:arrowType="4" v:arrowSize="2" v:setback="7.04" refX="-7.04" orient="auto"
				markerUnits="strokeWidth" overflow="visible">
			<use xlink:href="#lend4" transform="scale(-3.52,-3.52) "/>
		</marker>
	</defs>
	<defs id="Filters">
		<filter id="filter_2">
			<feGaussianBlur stdDeviation="2"/>
		</filter>
	</defs>
	<g v:mID="0" v:index="1" v:groupContext="foregroundPage">
		<v:userDefs>
			<v:ud v:nameU="msvThemeOrder" v:val="VT0(0):26"/>
		</v:userDefs>
		<title>Page-1</title>
		<v:pageProperties v:drawingScale="0.0393701" v:pageScale="0.0393701" v:drawingUnits="24" v:shadowOffsetX="8.50394"
				v:shadowOffsetY="-8.50394"/>
		<v:layer v:name="Flowchart" v:index="0"/>
		<v:layer v:name="Connector" v:index="1"/>
		<g id="shape1-1" v:mID="1" v:groupContext="shape" v:layerMember="0" transform="translate(406.772,-160.866)">
			<title>Data store</title>
			<desc>ICAT</desc>
			<v:custProps>
				<v:cp v:nameU="Cost" v:lbl="Cost" v:type="7" v:format="@" v:langID="1033"/>
				<v:cp v:nameU="Duration" v:lbl="Duration" v:type="2" v:langID="1033"/>
				<v:cp v:nameU="Resources" v:lbl="Resources" v:langID="1033"/>
			</v:custProps>
			<v:userDefs>
				<v:ud v:nameU="visVersion" v:val="VT0(15):26"/>
			</v:userDefs>
			<v:textBlock v:margins="rect(1,1,1,1)" v:tabSpace="42.5197"/>
			<v:textRect cx="35.4331" cy="577.559" width="70.87" height="35.4331"/>
			<path d="M0 595.28 L70.87 595.28" class="st1"/>
			<path d="M0 559.84 L70.87 559.84" class="st1"/>
			<rect v:rectContext="textBkgnd" x="22.4756" y="569.159" width="25.9148" height="16.8" class="st2"/>
			<text x="22.48" y="581.76" class="st3" v:langID="2057"><v:paragraph v:horizAlign="1"/><v:tabList/>ICAT</text>		</g>
		<g id="shape2-7" v:mID="2" v:groupContext="shape" v:layerMember="0" transform="translate(212.598,-150.236)">
			<title>Data process</title>
			<desc>Permissions Plugin</desc>
			<v:custProps>
				<v:cp v:nameU="Cost" v:lbl="Cost" v:type="7" v:format="@" v:langID="1033"/>
				<v:cp v:nameU="Duration" v:lbl="Duration" v:type="2" v:langID="1033"/>
				<v:cp v:nameU="Resources" v:lbl="Resources" v:langID="1033"/>
			</v:custProps>
			<v:userDefs>
				<v:ud v:nameU="visVersion" v:val="VT0(15):26"/>
			</v:userDefs>
			<v:textBlock v:margins="rect(1,1,1,1)" v:tabSpace="42.5197"/>
			<v:textRect cx="28.3465" cy="566.929" width="56.7" height="56.6929"/>
			<g id="shadow2-8" v:groupContext="shadow" v:shadowOffsetX="0.345598" v:shadowOffsetY="-1.97279" v:shadowType="1"
					transform="matrix(1,0,0,1,0.345598,1.97279)" class="st4">
				<path d="M0 566.93 A28.3465 28.3465 0 0 1 56.69 566.93 A28.3465 28.3465 0 1 1 0 566.93 Z" class="st5"/>
			</g>
			<path d="M0 566.93 A28.3465 28.3465 0 0 1 56.69 566.93 A28.3465 28.3465 0 1 1 0 566.93 Z" class="st6"/>
			<text x="4.11" y="563.93" class="st7" v:langID="2057"><v:paragraph v:horizAlign="1"/><v:tabList/>Permissions <tspan
						x="15.86" dy="1.2em" class="st8">Plugin</tspan></text>		</g>
		<g id="shape8-14" v:mID="8" v:groupContext="shape" v:layerMember="0" transform="translate(413.858,-316.772)">
			<title>Data process.8</title>
			<desc>Proposal Ingestion</desc>
			<v:custProps>
				<v:cp v:nameU="Cost" v:lbl="Cost" v:type="7" v:format="@" v:langID="1033"/>
				<v:cp v:nameU="Duration" v:lbl="Duration" v:type="2" v:langID="1033"/>
				<v:cp v:nameU="Resources" v:lbl="Resources" v:langID="1033"/>
			</v:custProps>
			<v:userDefs>
				<v:ud v:nameU="visVersion" v:val="VT0(15):26"/>
			</v:userDefs>
			<v:textBlock v:margins="rect(1,1,1,1)" v:tabSpace="42.5197"/>
			<v:textRect cx="28.3465" cy="566.929" width="56.7" height="56.6929"/>
			<g id="shadow8-15" v:groupContext="shadow" v:shadowOffsetX="0.345598" v:shadowOffsetY="-1.97279" v:shadowType="1"
					transform="matrix(1,0,0,1,0.345598,1.97279)" class="st4">
				<path d="M0 566.93 A28.3465 28.3465 0 0 1 56.69 566.93 A28.3465 28.3465 0 1 1 0 566.93 Z" class="st5"/>
			</g>
			<path d="M0 566.93 A28.3465 28.3465 0 0 1 56.69 566.93 A28.3465 28.3465 0 1 1 0 566.93 Z" class="st6"/>
			<text x="10.62" y="563.93" class="st7" v:langID="2057"><v:paragraph v:horizAlign="1"/><v:tabList/>Proposal <tspan
						x="9.58" dy="1.2em" class="st8">Ingestion</tspan></text>		</g>
		<g id="shape9-21" v:mID="9" v:groupContext="shape" v:layerMember="1" transform="translate(435.118,-196.299)">
			<title>Dynamic connector.9</title>
			<v:userDefs>
				<v:ud v:nameU="visVersion" v:val="VT0(15):26"/>
			</v:userDefs>
			<path d="M7.09 595.28 L7.09 481.84" class="st9"/>
		</g>
		<g id="shape10-27" v:mID="10" v:groupContext="shape" v:layerMember="0" transform="translate(260.34,-65.1969)">
			<title>External interactor</title>
			<desc>User</desc>
			<v:custProps>
				<v:cp v:nameU="Cost" v:lbl="Cost" v:type="7" v:format="@" v:langID="1033"/>
				<v:cp v:nameU="Duration" v:lbl="Duration" v:type="2" v:langID="1033"/>
				<v:cp v:nameU="Resources" v:lbl="Resources" v:langID="1033"/>
			</v:custProps>
			<v:userDefs>
				<v:ud v:nameU="visVersion" v:val="VT0(15):26"/>
			</v:userDefs>
			<v:textBlock v:margins="rect(1,1,1,1)" v:tabSpace="42.5197"/>
			<v:textRect cx="28.3465" cy="581.102" width="56.7" height="28.3465"/>
			<g id="shadow10-28" v:groupContext="shadow" v:shadowOffsetX="0.345598" v:shadowOffsetY="-1.97279" v:shadowType="1"
					transform="matrix(1,0,0,1,0.345598,1.97279)" class="st4">
				<rect x="0" y="566.929" width="56.6929" height="28.3465" class="st5"/>
			</g>
			<rect x="0" y="566.929" width="56.6929" height="28.3465" class="st6"/>
			<text x="15.19" y="585.3" class="st3" v:langID="2057"><v:paragraph v:horizAlign="1"/><v:tabList/>User</text>		</g>
		<g id="shape11-33" v:mID="11" v:groupContext="shape" v:layerMember="1" transform="translate(288.686,-93.5433)">
			<title>Dynamic connector.11</title>
			<v:userDefs>
				<v:ud v:nameU="visVersion" v:val="VT0(15):26"/>
			</v:userDefs>
			<path d="M0 595.28 L0 584.65 L-47.74 584.65 L-47.74 545.62" class="st9"/>
		</g>
		<g id="shape13-38" v:mID="13" v:groupContext="shape" v:layerMember="0" transform="translate(566.929,-425.197)">
			<title>Data store.13</title>
			<desc>Active Directory</desc>
			<v:custProps>
				<v:cp v:nameU="Cost" v:lbl="Cost" v:type="7" v:format="@" v:langID="1033"/>
				<v:cp v:nameU="Duration" v:lbl="Duration" v:type="2" v:langID="1033"/>
				<v:cp v:nameU="Resources" v:lbl="Resources" v:langID="1033"/>
			</v:custProps>
			<v:userDefs>
				<v:ud v:nameU="visVersion" v:val="VT0(15):26"/>
			</v:userDefs>
			<v:textBlock v:margins="rect(1,1,1,1)" v:tabSpace="42.5197"/>
			<v:textRect cx="35.4331" cy="577.559" width="70.87" height="35.4331"/>
			<path d="M0 595.28 L70.87 595.28" class="st1"/>
			<path d="M0 559.84 L70.87 559.84" class="st1"/>
			<rect v:rectContext="textBkgnd" x="14.6577" y="564.359" width="41.5508" height="26.4007" class="st11"/>
			<text x="21.6" y="574.26" class="st12" v:langID="2057"><v:paragraph v:horizAlign="1"/><v:tabList/>Active <tspan
						x="14.66" dy="1.2em" class="st8">Directory</tspan></text>		</g>
		<g id="shape14-45" v:mID="14" v:groupContext="shape" v:layerMember="0" transform="translate(566.929,-255.118)">
			<title>Data store.14</title>
			<desc>excitations.txt</desc>
			<v:custProps>
				<v:cp v:nameU="Cost" v:lbl="Cost" v:type="7" v:format="@" v:langID="1033"/>
				<v:cp v:nameU="Duration" v:lbl="Duration" v:type="2" v:langID="1033"/>
				<v:cp v:nameU="Resources" v:lbl="Resources" v:langID="1033"/>
			</v:custProps>
			<v:userDefs>
				<v:ud v:nameU="visVersion" v:val="VT0(15):26"/>
			</v:userDefs>
			<v:textBlock v:margins="rect(1,1,1,1)" v:tabSpace="42.5197"/>
			<v:textRect cx="35.4331" cy="577.559" width="70.87" height="35.4331"/>
			<path d="M0 595.28 L70.87 595.28" class="st1"/>
			<path d="M0 559.84 L70.87 559.84" class="st1"/>
			<rect v:rectContext="textBkgnd" x="3.74908" y="570.959" width="63.368" height="13.2003" class="st11"/>
			<text x="3.75" y="580.86" class="st12" v:langID="2057"><v:paragraph v:horizAlign="1"/><v:tabList/>excitations.txt</text>		</g>
		<g id="shape15-51" v:mID="15" v:groupContext="shape" v:layerMember="1" transform="translate(470.551,-345.118)">
			<title>Dynamic connector.15</title>
			<v:userDefs>
				<v:ud v:nameU="visVersion" v:val="VT0(15):26"/>
			</v:userDefs>
			<path d="M0 595.28 L10.63 595.28 L10.63 667.56 L89.34 667.56" class="st9"/>
		</g>
		<g id="shape16-56" v:mID="16" v:groupContext="shape" v:layerMember="1" transform="translate(470.551,-345.118)">
			<title>Dynamic connector.16</title>
			<v:userDefs>
				<v:ud v:nameU="visVersion" v:val="VT0(15):26"/>
			</v:userDefs>
			<path d="M0 595.28 L10.63 595.28 L10.63 497.48 L89.34 497.48" class="st9"/>
		</g>
		<g id="shape20-61" v:mID="20" v:groupContext="shape" v:layerMember="1" transform="translate(435.118,-316.772)">
			<title>Dynamic connector.20</title>
			<desc>Current cycle proposals</desc>
			<v:userDefs>
				<v:ud v:nameU="visVersion" v:val="VT0(15):26"/>
			</v:userDefs>
			<v:textBlock v:margins="rect(4,4,4,4)" v:tabSpace="42.5197"/>
			<v:textRect cx="7.08661" cy="655.512" width="86.11" height="17.6036"/>
			<path d="M7.09 595.28 L7.09 708.71" class="st9"/>
			<rect v:rectContext="textBkgnd" x="-31.0575" y="650.712" width="76.2885" height="9.59985" class="st11"/>
			<text x="-31.06" y="657.91" class="st13" v:langID="2057"><v:paragraph v:horizAlign="1"/><v:tabList/>Current cycle proposals</text>		</g>
		<g id="shape24-68" v:mID="24" v:groupContext="shape" v:layerMember="0" transform="translate(92.126,-415.984)">
			<title>Data store.24</title>
			<desc>SharePoint</desc>
			<v:custProps>
				<v:cp v:nameU="Cost" v:lbl="Cost" v:type="7" v:format="@" v:langID="1033"/>
				<v:cp v:nameU="Duration" v:lbl="Duration" v:type="2" v:langID="1033"/>
				<v:cp v:nameU="Resources" v:lbl="Resources" v:langID="1033"/>
			</v:custProps>
			<v:userDefs>
				<v:ud v:nameU="visVersion" v:val="VT0(15):26"/>
			</v:userDefs>
			<v:textBlock v:margins="rect(1,1,1,1)" v:tabSpace="42.5197"/>
			<v:textRect cx="35.4331" cy="577.559" width="70.87" height="35.4331"/>
			<path d="M0 595.28 L70.87 595.28" class="st1"/>
			<path d="M0 559.84 L70.87 559.84" class="st1"/>
			<rect v:rectContext="textBkgnd" x="10.9918" y="570.959" width="48.8826" height="13.2003" class="st11"/>
			<text x="10.99" y="580.86" class="st12" v:langID="2057"><v:paragraph v:horizAlign="1"/><v:tabList/>SharePoint</text>		</g>
		<g id="shape25-74" v:mID="25" v:groupContext="shape" v:layerMember="0" transform="translate(92.126,-328.819)">
			<title>Data store.25</title>
			<desc>Visits System</desc>
			<v:custProps>
				<v:cp v:nameU="Cost" v:lbl="Cost" v:type="7" v:format="@" v:langID="1033"/>
				<v:cp v:nameU="Duration" v:lbl="Duration" v:type="2" v:langID="1033"/>
				<v:cp v:nameU="Resources" v:lbl="Resources" v:langID="1033"/>
			</v:custProps>
			<v:userDefs>
				<v:ud v:nameU="visVersion" v:val="VT0(15):26"/>
			</v:userDefs>
			<v:textBlock v:margins="rect(1,1,1,1)" v:tabSpace="42.5197"/>
			<v:textRect cx="35.4331" cy="577.559" width="70.87" height="35.4331"/>
			<path d="M0 595.28 L70.87 595.28" class="st1"/>
			<path d="M0 559.84 L70.87 559.84" class="st1"/>
			<rect v:rectContext="textBkgnd" x="6.26001" y="570.959" width="58.3462" height="13.2003" class="st11"/>
			<text x="6.26" y="580.86" class="st12" v:langID="2057"><v:paragraph v:horizAlign="1"/><v:tabList/>Visits System</text>		</g>
		<g id="shape26-80" v:mID="26" v:groupContext="shape" v:layerMember="0" transform="translate(92.126,-245.906)">
			<title>Data store.26</title>
			<desc>Scheduler</desc>
			<v:custProps>
				<v:cp v:nameU="Cost" v:lbl="Cost" v:type="7" v:format="@" v:langID="1033"/>
				<v:cp v:nameU="Duration" v:lbl="Duration" v:type="2" v:langID="1033"/>
				<v:cp v:nameU="Resources" v:lbl="Resources" v:langID="1033"/>
			</v:custProps>
			<v:userDefs>
				<v:ud v:nameU="visVersion" v:val="VT0(15):26"/>
			</v:userDefs>
			<v:textBlock v:margins="rect(1,1,1,1)" v:tabSpace="42.5197"/>
			<v:textRect cx="35.4331" cy="577.559" width="70.87" height="35.4331"/>
			<path d="M0 595.28 L70.87 595.28" class="st1"/>
			<path d="M0 559.84 L70.87 559.84" class="st1"/>
			<rect v:rectContext="textBkgnd" x="13.2583" y="570.959" width="44.3493" height="13.2003" class="st2"/>
			<text x="13.26" y="580.86" class="st12" v:langID="2057"><v:paragraph v:horizAlign="1"/><v:tabList/>Scheduler</text>		</g>
		<g id="shape27-86" v:mID="27" v:groupContext="shape" v:layerMember="0" transform="translate(226.772,-235.276)">
			<title>Data process.27</title>
			<desc>Scheduler Web Service</desc>
			<v:custProps>
				<v:cp v:nameU="Cost" v:lbl="Cost" v:type="7" v:format="@" v:langID="1033"/>
				<v:cp v:nameU="Duration" v:lbl="Duration" v:type="2" v:langID="1033"/>
				<v:cp v:nameU="Resources" v:lbl="Resources" v:langID="1033"/>
			</v:custProps>
			<v:userDefs>
				<v:ud v:nameU="visVersion" v:val="VT0(15):26"/>
			</v:userDefs>
			<v:textBlock v:margins="rect(1,1,1,1)" v:tabSpace="42.5197"/>
			<v:textRect cx="28.3465" cy="566.929" width="56.7" height="56.6929"/>
			<g id="shadow27-87" v:groupContext="shadow" v:shadowOffsetX="0.345598" v:shadowOffsetY="-1.97279" v:shadowType="1"
					transform="matrix(1,0,0,1,0.345598,1.97279)" class="st4">
				<path d="M0 566.93 A28.3465 28.3465 0 0 1 56.69 566.93 A28.3465 28.3465 0 1 1 0 566.93 Z" class="st5"/>
			</g>
			<path d="M0 566.93 A28.3465 28.3465 0 0 1 56.69 566.93 A28.3465 28.3465 0 1 1 0 566.93 Z" class="st6"/>
			<text x="8.19" y="563.93" class="st7" v:langID="2057"><v:paragraph v:horizAlign="1"/><v:tabList/>Scheduler <tspan
						x="3.12" dy="1.2em" class="st8">Web Service</tspan></text>		</g>
		<g id="shape28-93" v:mID="28" v:groupContext="shape" v:layerMember="0" transform="translate(226.772,-318.189)">
			<title>Data process.28</title>
			<desc>Visits System Web Service</desc>
			<v:custProps>
				<v:cp v:nameU="Cost" v:lbl="Cost" v:type="7" v:format="@" v:langID="1033"/>
				<v:cp v:nameU="Duration" v:lbl="Duration" v:type="2" v:langID="1033"/>
				<v:cp v:nameU="Resources" v:lbl="Resources" v:langID="1033"/>
			</v:custProps>
			<v:userDefs>
				<v:ud v:nameU="visVersion" v:val="VT0(15):26"/>
			</v:userDefs>
			<v:textBlock v:margins="rect(1,1,1,1)" v:tabSpace="42.5197"/>
			<v:textRect cx="28.3465" cy="566.929" width="56.7" height="56.6929"/>
			<g id="shadow28-94" v:groupContext="shadow" v:shadowOffsetX="0.345598" v:shadowOffsetY="-1.97279" v:shadowType="1"
					transform="matrix(1,0,0,1,0.345598,1.97279)" class="st4">
				<path d="M0 566.93 A28.3465 28.3465 0 0 1 56.69 566.93 A28.3465 28.3465 0 1 1 0 566.93 Z" class="st5"/>
			</g>
			<path d="M0 566.93 A28.3465 28.3465 0 0 1 56.69 566.93 A28.3465 28.3465 0 1 1 0 566.93 Z" class="st6"/>
			<text x="1.83" y="563.93" class="st7" v:langID="2057"><v:paragraph v:horizAlign="1"/><v:tabList/>Visits System <tspan
						x="3.12" dy="1.2em" class="st8">Web Service</tspan></text>		</g>
		<g id="shape29-100" v:mID="29" v:groupContext="shape" v:layerMember="0" transform="translate(226.772,-405.354)">
			<title>Data process.29</title>
			<desc>SharePoint Web API</desc>
			<v:custProps>
				<v:cp v:nameU="Cost" v:lbl="Cost" v:type="7" v:format="@" v:langID="1033"/>
				<v:cp v:nameU="Duration" v:lbl="Duration" v:type="2" v:langID="1033"/>
				<v:cp v:nameU="Resources" v:lbl="Resources" v:langID="1033"/>
			</v:custProps>
			<v:userDefs>
				<v:ud v:nameU="visVersion" v:val="VT0(15):26"/>
			</v:userDefs>
			<v:textBlock v:margins="rect(1,1,1,1)" v:tabSpace="42.5197"/>
			<v:textRect cx="28.3465" cy="566.929" width="56.7" height="56.6929"/>
			<g id="shadow29-101" v:groupContext="shadow" v:shadowOffsetX="0.345598" v:shadowOffsetY="-1.97279" v:shadowType="1"
					transform="matrix(1,0,0,1,0.345598,1.97279)" class="st4">
				<path d="M0 566.93 A28.3465 28.3465 0 0 1 56.69 566.93 A28.3465 28.3465 0 1 1 0 566.93 Z" class="st5"/>
			</g>
			<path d="M0 566.93 A28.3465 28.3465 0 0 1 56.69 566.93 A28.3465 28.3465 0 1 1 0 566.93 Z" class="st6"/>
			<text x="6.13" y="563.93" class="st7" v:langID="2057"><v:paragraph v:horizAlign="1"/><v:tabList/>SharePoint <tspan
						x="10.92" dy="1.2em" class="st8">Web API</tspan></text>		</g>
		<g id="shape30-107" v:mID="30" v:groupContext="shape" v:layerMember="1" transform="translate(162.992,-256.535)">
			<title>Dynamic connector.30</title>
			<desc>Experiments</desc>
			<v:userDefs>
				<v:ud v:nameU="visVersion" v:val="VT0(15):26"/>
			</v:userDefs>
			<v:textBlock v:margins="rect(4,4,4,4)" v:tabSpace="42.5197"/>
			<v:textRect cx="31.8898" cy="588.189" width="50.38" height="17.6036"/>
			<path d="M0 588.19 L56.74 588.19" class="st9"/>
			<rect v:rectContext="textBkgnd" x="11.609" y="583.389" width="40.5618" height="9.59985" class="st11"/>
			<text x="11.61" y="590.59" class="st13" v:langID="2057"><v:paragraph v:horizAlign="1"/><v:tabList/>Experiments</text>		</g>
		<g id="shape31-114" v:mID="31" v:groupContext="shape" v:layerMember="1" transform="translate(162.992,-426.614)">
			<title>Dynamic connector.31</title>
			<v:userDefs>
				<v:ud v:nameU="visVersion" v:val="VT0(15):26"/>
			</v:userDefs>
			<path d="M0 588.19 L56.74 588.19" class="st9"/>
		</g>
		<g id="shape32-119" v:mID="32" v:groupContext="shape" v:layerMember="1" transform="translate(162.992,-339.449)">
			<title>Dynamic connector.32</title>
			<desc>Users</desc>
			<v:userDefs>
				<v:ud v:nameU="visVersion" v:val="VT0(15):26"/>
			</v:userDefs>
			<v:textBlock v:margins="rect(4,4,4,4)" v:tabSpace="42.5197"/>
			<v:textRect cx="31.8898" cy="588.189" width="40" height="17.6036"/>
			<path d="M0 588.19 L56.74 588.19" class="st9"/>
			<rect v:rectContext="textBkgnd" x="22.8096" y="583.389" width="18.1601" height="9.59985" class="st2"/>
			<text x="22.81" y="590.59" class="st13" v:langID="2057"><v:paragraph v:horizAlign="1"/><v:tabList/>Users</text>		</g>
		<g id="shape33-126" v:mID="33" v:groupContext="shape" v:layerMember="1" transform="translate(283.465,-433.701)">
			<title>Dynamic connector.33</title>
			<v:userDefs>
				<v:ud v:nameU="visVersion" v:val="VT0(15):26"/>
			</v:userDefs>
			<path d="M0 595.28 L10.63 595.28 L10.63 683.86 L123.35 683.86" class="st9"/>
		</g>
		<g id="shape34-131" v:mID="34" v:groupContext="shape" v:layerMember="1" transform="translate(283.465,-352.913)">
			<title>Dynamic connector.34</title>
			<v:userDefs>
				<v:ud v:nameU="visVersion" v:val="VT0(15):26"/>
			</v:userDefs>
			<path d="M0 601.65 L10.63 601.65 L10.63 603.07 L123.35 603.07" class="st9"/>
		</g>
		<g id="shape35-136" v:mID="35" v:groupContext="shape" v:layerMember="1" transform="translate(283.465,-263.622)">
			<title>Dynamic connector.35</title>
			<v:userDefs>
				<v:ud v:nameU="visVersion" v:val="VT0(15):26"/>
			</v:userDefs>
			<path d="M0 595.28 L10.63 595.28 L10.63 513.78 L123.35 513.78" class="st9"/>
		</g>
		<g id="shape37-141" v:mID="37" v:groupContext="shape" v:layerMember="0" transform="translate(581.102,-150.236)">
			<title>Data process.37</title>
			<desc>DOI Web Service</desc>
			<v:custProps>
				<v:cp v:nameU="Cost" v:lbl="Cost" v:type="7" v:format="@" v:langID="1033"/>
				<v:cp v:nameU="Duration" v:lbl="Duration" v:type="2" v:langID="1033"/>
				<v:cp v:nameU="Resources" v:lbl="Resources" v:langID="1033"/>
			</v:custProps>
			<v:userDefs>
				<v:ud v:nameU="visVersion" v:val="VT0(15):26"/>
			</v:userDefs>
			<v:textBlock v:margins="rect(1,1,1,1)" v:tabSpace="42.5197"/>
			<v:textRect cx="28.3465" cy="566.929" width="56.7" height="56.6929"/>
			<g id="shadow37-142" v:groupContext="shadow" v:shadowOffsetX="0.345598" v:shadowOffsetY="-1.97279" v:shadowType="1"
					transform="matrix(1,0,0,1,0.345598,1.97279)" class="st4">
				<path d="M0 566.93 A28.3465 28.3465 0 0 1 56.69 566.93 A28.3465 28.3465 0 1 1 0 566.93 Z" class="st5"/>
			</g>
			<path d="M0 566.93 A28.3465 28.3465 0 0 1 56.69 566.93 A28.3465 28.3465 0 1 1 0 566.93 Z" class="st6"/>
			<text x="10.01" y="563.93" class="st7" v:langID="2057"><v:paragraph v:horizAlign="1"/><v:tabList/>DOI Web <tspan
						x="13.81" dy="1.2em" class="st8">Service</tspan></text>		</g>
		<g id="shape38-148" v:mID="38" v:groupContext="shape" v:layerMember="1" transform="translate(477.638,-171.496)">
			<title>Dynamic connector.38</title>
			<v:userDefs>
				<v:ud v:nameU="visVersion" v:val="VT0(15):26"/>
			</v:userDefs>
			<path d="M0 588.19 L96.42 588.19" class="st9"/>
		</g>
		<g id="shape39-153" v:mID="39" v:groupContext="shape" v:layerMember="1" transform="translate(581.102,-171.496)">
			<title>Dynamic connector.39</title>
			<v:userDefs>
				<v:ud v:nameU="visVersion" v:val="VT0(15):26"/>
			</v:userDefs>
			<path d="M0 588.19 L-96.42 588.19" class="st9"/>
		</g>
		<g id="shape40-158" v:mID="40" v:groupContext="shape" v:layerMember="1" transform="translate(470.551,-345.118)">
			<title>Dynamic connector.40</title>
			<v:userDefs>
				<v:ud v:nameU="visVersion" v:val="VT0(15):26"/>
			</v:userDefs>
			<path d="M0 595.28 L10.63 595.28 L10.63 722.83 L138.9 722.83 L138.9 726.42" class="st9"/>
		</g>
		<g id="shape42-163" v:mID="42" v:groupContext="shape" v:layerMember="0" transform="translate(694.488,-164.409)">
			<title>External interactor.42</title>
			<desc>Datacite</desc>
			<v:custProps>
				<v:cp v:nameU="Cost" v:lbl="Cost" v:type="7" v:format="@" v:langID="1033"/>
				<v:cp v:nameU="Duration" v:lbl="Duration" v:type="2" v:langID="1033"/>
				<v:cp v:nameU="Resources" v:lbl="Resources" v:langID="1033"/>
			</v:custProps>
			<v:userDefs>
				<v:ud v:nameU="visVersion" v:val="VT0(15):26"/>
			</v:userDefs>
			<v:textBlock v:margins="rect(1,1,1,1)" v:tabSpace="42.5197"/>
			<v:textRect cx="28.3465" cy="581.102" width="56.7" height="28.3465"/>
			<g id="shadow42-164" v:groupContext="shadow" v:shadowOffsetX="0.345598" v:shadowOffsetY="-1.97279" v:shadowType="1"
					transform="matrix(1,0,0,1,0.345598,1.97279)" class="st4">
				<rect x="0" y="566.929" width="56.6929" height="28.3465" class="st5"/>
			</g>
			<rect x="0" y="566.929" width="56.6929" height="28.3465" class="st6"/>
			<text x="4.59" y="585.3" class="st3" v:langID="2057"><v:paragraph v:horizAlign="1"/><v:tabList/>Datacite</text>		</g>
		<g id="shape43-169" v:mID="43" v:groupContext="shape" v:layerMember="1" transform="translate(637.795,-171.496)">
			<title>Dynamic connector.43</title>
			<v:userDefs>
				<v:ud v:nameU="visVersion" v:val="VT0(15):26"/>
			</v:userDefs>
			<path d="M0 588.19 L49.65 588.19" class="st9"/>
		</g>
		<g id="shape44-174" v:mID="44" v:groupContext="shape" v:layerMember="1" transform="translate(694.488,-171.496)">
			<title>Dynamic connector.44</title>
			<v:userDefs>
				<v:ud v:nameU="visVersion" v:val="VT0(15):26"/>
			</v:userDefs>
			<path d="M0 588.19 L-49.65 588.19" class="st9"/>
		</g>
		<g id="shape46-179" v:mID="46" v:groupContext="shape" v:layerMember="1" transform="translate(442.205,-373.465)">
			<title>Dynamic connector.46</title>
			<desc>DOIs</desc>
			<v:userDefs>
				<v:ud v:nameU="visVersion" v:val="VT0(15):26"/>
			</v:userDefs>
			<v:textBlock v:margins="rect(4,4,4,4)" v:tabSpace="42.5197"/>
			<v:textRect cx="-49.252" cy="472.677" width="60.01" height="22.4037"/>
			<path d="M0 595.28 L0 472.68 L-187.09 472.68 L-187.09 499.65" class="st9"/>
			<rect v:rectContext="textBkgnd" x="-60.7743" y="465.477" width="23.0449" height="14.4001" class="st11"/>
			<text x="-60.77" y="476.28" class="st14" v:langID="2057"><v:paragraph v:horizAlign="1"/><v:tabList/>DOIs</text>		</g>
		<g id="shape47-186" v:mID="47" v:groupContext="shape" v:layerMember="1" transform="translate(226.772,-426.614)">
			<title>Dynamic connector.47</title>
			<desc>Users</desc>
			<v:userDefs>
				<v:ud v:nameU="visVersion" v:val="VT0(15):26"/>
			</v:userDefs>
			<v:textBlock v:margins="rect(4,4,4,4)" v:tabSpace="42.5197"/>
			<v:textRect cx="-31.8898" cy="588.189" width="40" height="17.6036"/>
			<path d="M0 588.19 L-56.74 588.19" class="st9"/>
			<rect v:rectContext="textBkgnd" x="-40.9699" y="583.389" width="18.1601" height="9.59985" class="st2"/>
			<text x="-40.97" y="590.59" class="st13" v:langID="2057"><v:paragraph v:horizAlign="1"/><v:tabList/>Users</text>		</g>
		<g id="shape48-193" v:mID="48" v:groupContext="shape" v:layerMember="0" transform="translate(694.488,-367.087)">
			<title>External interactor.48</title>
			<desc>IDAaaS</desc>
			<v:custProps>
				<v:cp v:nameU="Cost" v:lbl="Cost" v:type="7" v:format="@" v:langID="1033"/>
				<v:cp v:nameU="Duration" v:lbl="Duration" v:type="2" v:langID="1033"/>
				<v:cp v:nameU="Resources" v:lbl="Resources" v:langID="1033"/>
			</v:custProps>
			<v:userDefs>
				<v:ud v:nameU="visVersion" v:val="VT0(15):26"/>
			</v:userDefs>
			<v:textBlock v:margins="rect(1,1,1,1)" v:tabSpace="42.5197"/>
			<v:textRect cx="35.4331" cy="577.559" width="70.87" height="35.4331"/>
			<g id="shadow48-194" v:groupContext="shadow" v:shadowOffsetX="0.345598" v:shadowOffsetY="-1.97279" v:shadowType="1"
					transform="matrix(1,0,0,1,0.345598,1.97279)" class="st4">
				<rect x="0" y="559.843" width="70.8661" height="35.4331" class="st5"/>
			</g>
			<rect x="0" y="559.843" width="70.8661" height="35.4331" class="st6"/>
			<text x="18.25" y="581.16" class="st14" v:langID="2057"><v:paragraph v:horizAlign="1"/><v:tabList/>IDAaaS</text>		</g>
		<g id="shape49-199" v:mID="49" v:groupContext="shape" v:layerMember="0" transform="translate(694.488,-309.685)">
			<title>External interactor.49</title>
			<desc>ISIS Compute</desc>
			<v:custProps>
				<v:cp v:nameU="Cost" v:lbl="Cost" v:type="7" v:format="@" v:langID="1033"/>
				<v:cp v:nameU="Duration" v:lbl="Duration" v:type="2" v:langID="1033"/>
				<v:cp v:nameU="Resources" v:lbl="Resources" v:langID="1033"/>
			</v:custProps>
			<v:userDefs>
				<v:ud v:nameU="visVersion" v:val="VT0(15):26"/>
			</v:userDefs>
			<v:textBlock v:margins="rect(1,1,1,1)" v:tabSpace="42.5197"/>
			<v:textRect cx="35.4331" cy="577.559" width="70.87" height="35.4331"/>
			<g id="shadow49-200" v:groupContext="shadow" v:shadowOffsetX="0.345598" v:shadowOffsetY="-1.97279" v:shadowType="1"
					transform="matrix(1,0,0,1,0.345598,1.97279)" class="st4">
				<rect x="0" y="559.843" width="70.8661" height="35.4331" class="st5"/>
			</g>
			<rect x="0" y="559.843" width="70.8661" height="35.4331" class="st6"/>
			<text x="3.08" y="581.16" class="st14" v:langID="2057"><v:paragraph v:horizAlign="1"/><v:tabList/>ISIS Compute</text>		</g>
		<g id="shape50-205" v:mID="50" v:groupContext="shape" v:layerMember="1" transform="translate(637.795,-272.835)">
			<title>Dynamic connector.50</title>
			<v:userDefs>
				<v:ud v:nameU="visVersion" v:val="VT0(15):26"/>
			</v:userDefs>
			<path d="M0 595.28 L10.63 595.28 L10.63 540.71 L49.65 540.71" class="st9"/>
		</g>
		<g id="shape51-210" v:mID="51" v:groupContext="shape" v:layerMember="1" transform="translate(637.795,-442.913)">
			<title>Dynamic connector.51</title>
			<v:userDefs>
				<v:ud v:nameU="visVersion" v:val="VT0(15):26"/>
			</v:userDefs>
			<path d="M0 595.28 L10.63 595.28 L10.63 653.39 L49.65 653.39" class="st9"/>
		</g>
		<g id="shape52-215" v:mID="52" v:groupContext="shape" v:layerMember="1" transform="translate(442.205,-160.866)">
			<title>Dynamic connector.52</title>
			<v:userDefs>
				<v:ud v:nameU="visVersion" v:val="VT0(15):26"/>
			</v:userDefs>
			<path d="M0 595.28 L0 662.6 L349.26 662.6 L349.26 371.34 L330.19 371.34" class="st9"/>
		</g>
		<g id="shape54-220" v:mID="54" v:groupContext="shape" transform="translate(32.5984,-538.583)">
			<title>Sheet.54</title>
			<desc>ISIS Proposals Data Flow</desc>
			<v:textBlock v:margins="rect(4,4,4,4)" v:tabSpace="42.5197"/>
			<v:textRect cx="80.7874" cy="581.102" width="161.58" height="28.3465"/>
			<rect x="0" y="566.929" width="161.575" height="28.3465" class="st15"/>
			<text x="9.77" y="585.3" class="st16" v:langID="2057"><v:paragraph v:horizAlign="1"/><v:tabList/>ISIS Proposals Data Flow</text>		</g>
		<g id="shape55-223" v:mID="55" v:groupContext="shape" v:layerMember="0" transform="translate(666.142,-547.214)">
			<title>Data store.55</title>
			<v:custProps>
				<v:cp v:nameU="Cost" v:lbl="Cost" v:type="7" v:format="@" v:langID="1033"/>
				<v:cp v:nameU="Duration" v:lbl="Duration" v:type="2" v:langID="1033"/>
				<v:cp v:nameU="Resources" v:lbl="Resources" v:langID="1033"/>
			</v:custProps>
			<v:userDefs>
				<v:ud v:nameU="visVersion" v:val="VT0(15):26"/>
			</v:userDefs>
			<path d="M0 595.28 L42.52 595.28" class="st1"/>
			<path d="M0 574.02 L42.52 574.02" class="st1"/>
		</g>
		<g id="shape56-227" v:mID="56" v:groupContext="shape" transform="translate(708.661,-548.631)">
			<title>Sheet.56</title>
			<desc>= Data Source</desc>
			<v:textBlock v:margins="rect(4,4,4,4)" v:tabSpace="42.5197"/>
			<v:textRect cx="38.9764" cy="585.354" width="77.96" height="19.8425"/>
			<rect x="0" y="575.433" width="77.9528" height="19.8425" class="st15"/>
			<text x="5.14" y="588.95" class="st14" v:langID="2057"><v:paragraph v:horizAlign="1"/><v:tabList/>= Data Source</text>		</g>
		<g id="shape58-230" v:mID="58" v:groupContext="shape" v:layerMember="0" transform="translate(673.228,-511.781)">
			<title>Data process.58</title>
			<v:custProps>
				<v:cp v:nameU="Cost" v:lbl="Cost" v:type="7" v:format="@" v:langID="1033"/>
				<v:cp v:nameU="Duration" v:lbl="Duration" v:type="2" v:langID="1033"/>
				<v:cp v:nameU="Resources" v:lbl="Resources" v:langID="1033"/>
			</v:custProps>
			<v:userDefs>
				<v:ud v:nameU="visVersion" v:val="VT0(15):26"/>
			</v:userDefs>
			<g id="shadow58-231" v:groupContext="shadow" v:shadowOffsetX="0.345598" v:shadowOffsetY="-1.97279" v:shadowType="1"
					transform="matrix(1,0,0,1,0.345598,1.97279)" class="st4">
				<path d="M0 581.1 A14.1732 14.1732 0 0 1 28.35 581.1 A14.1732 14.1732 0 1 1 0 581.1 Z" class="st5"/>
			</g>
			<path d="M0 581.1 A14.1732 14.1732 0 0 1 28.35 581.1 A14.1732 14.1732 0 1 1 0 581.1 Z" class="st6"/>
		</g>
		<g id="shape59-235" v:mID="59" v:groupContext="shape" transform="translate(705.118,-516.033)">
			<title>Sheet.59</title>
			<desc>= Data Process</desc>
			<v:textBlock v:margins="rect(4,4,4,4)" v:tabSpace="42.5197"/>
			<v:textRect cx="46.063" cy="585.354" width="92.13" height="19.8425"/>
			<rect x="0" y="575.433" width="92.126" height="19.8425" class="st15"/>
			<text x="10.34" y="588.95" class="st14" v:langID="2057"><v:paragraph v:horizAlign="1"/><v:tabList/>= Data Process</text>		</g>
		<g id="shape60-238" v:mID="60" v:groupContext="shape" v:layerMember="0" transform="translate(664.597,-481.89)">
			<title>External interactor.60</title>
			<v:custProps>
				<v:cp v:nameU="Cost" v:lbl="Cost" v:type="7" v:format="@" v:langID="1033"/>
				<v:cp v:nameU="Duration" v:lbl="Duration" v:type="2" v:langID="1033"/>
				<v:cp v:nameU="Resources" v:lbl="Resources" v:langID="1033"/>
			</v:custProps>
			<v:userDefs>
				<v:ud v:nameU="visVersion" v:val="VT0(15):26"/>
			</v:userDefs>
			<g id="shadow60-239" v:groupContext="shadow" v:shadowOffsetX="0.345598" v:shadowOffsetY="-1.97279" v:shadowType="1"
					transform="matrix(1,0,0,1,0.345598,1.97279)" class="st4">
				<rect x="0" y="572.471" width="45.6094" height="22.8047" class="st5"/>
			</g>
			<rect x="0" y="572.471" width="45.6094" height="22.8047" class="st6"/>
		</g>
		<g id="shape61-243" v:mID="61" v:groupContext="shape" transform="translate(708.661,-481.89)">
			<title>Sheet.61</title>
			<desc>= External Interactor</desc>
			<v:textBlock v:margins="rect(4,4,4,4)" v:tabSpace="42.5197"/>
			<v:textRect cx="57.6142" cy="585.354" width="115.23" height="19.8425"/>
			<rect x="0" y="575.433" width="115.228" height="19.8425" class="st15"/>
			<text x="7.47" y="588.95" class="st14" v:langID="2057"><v:paragraph v:horizAlign="1"/><v:tabList/>= External Interactor</text>		</g>
		<g id="shape63-246" v:mID="63" v:groupContext="shape" v:layerMember="0" transform="translate(305.097,-150.236)">
			<title>Data process.63</title>
			<desc>TopCAT</desc>
			<v:custProps>
				<v:cp v:nameU="Cost" v:lbl="Cost" v:type="7" v:format="@" v:langID="1033"/>
				<v:cp v:nameU="Duration" v:lbl="Duration" v:type="2" v:langID="1033"/>
				<v:cp v:nameU="Resources" v:lbl="Resources" v:langID="1033"/>
			</v:custProps>
			<v:userDefs>
				<v:ud v:nameU="visVersion" v:val="VT0(15):26"/>
			</v:userDefs>
			<v:textBlock v:margins="rect(1,1,1,1)" v:tabSpace="42.5197"/>
			<v:textRect cx="28.3465" cy="566.929" width="56.7" height="56.6929"/>
			<g id="shadow63-247" v:groupContext="shadow" v:shadowOffsetX="0.345598" v:shadowOffsetY="-1.97279" v:shadowType="1"
					transform="matrix(1,0,0,1,0.345598,1.97279)" class="st4">
				<path d="M0 566.93 A28.3465 28.3465 0 0 1 56.69 566.93 A28.3465 28.3465 0 1 1 0 566.93 Z" class="st5"/>
			</g>
			<path d="M0 566.93 A28.3465 28.3465 0 0 1 56.69 566.93 A28.3465 28.3465 0 1 1 0 566.93 Z" class="st6"/>
			<text x="12.65" y="569.93" class="st7" v:langID="2057"><v:paragraph v:horizAlign="1"/><v:tabList/>TopCAT</text>		</g>
		<g id="shape64-252" v:mID="64" v:groupContext="shape" v:layerMember="1" transform="translate(269.291,-185.669)">
			<title>Dynamic connector.64</title>
			<v:userDefs>
				<v:ud v:nameU="visVersion" v:val="VT0(15):26"/>
			</v:userDefs>
			<path d="M0 602.36 L28.77 602.36" class="st9"/>
		</g>
		<g id="shape65-257" v:mID="65" v:groupContext="shape" v:layerMember="1" transform="translate(262.205,-171.496)">
			<title>Dynamic connector.65</title>
			<v:userDefs>
				<v:ud v:nameU="visVersion" v:val="VT0(15):26"/>
			</v:userDefs>
			<path d="M7.09 588.19 L14.17 588.19 L14.13 588.19" class="st9"/>
		</g>
		<g id="shape66-262" v:mID="66" v:groupContext="shape" v:layerMember="1" transform="translate(361.79,-171.496)">
			<title>Dynamic connector.66</title>
			<v:userDefs>
				<v:ud v:nameU="visVersion" v:val="VT0(15):26"/>
			</v:userDefs>
			<path d="M0 588.19 L37.94 588.19" class="st9"/>
		</g>
		<g id="shape67-267" v:mID="67" v:groupContext="shape" v:layerMember="1" transform="translate(406.772,-185.669)">
			<title>Dynamic connector.67</title>
			<v:userDefs>
				<v:ud v:nameU="visVersion" v:val="VT0(15):26"/>
			</v:userDefs>
			<path d="M0 602.36 L-37.94 602.36" class="st9"/>
		</g>
		<g id="shape68-272" v:mID="68" v:groupContext="shape" v:layerMember="1" transform="translate(288.686,-93.5433)">
			<title>Dynamic connector.68</title>
			<v:userDefs>
				<v:ud v:nameU="visVersion" v:val="VT0(15):26"/>
			</v:userDefs>
			<path d="M0 595.28 L0 584.65 L44.76 584.65 L44.76 545.62" class="st9"/>
		</g>
		<g id="shape69-277" v:mID="69" v:groupContext="shape" transform="translate(664.597,-457.795)">
			<title>Sheet.69</title>
			<desc>Arrows show flow of data.</desc>
			<v:textBlock v:margins="rect(4,4,4,4)" v:tabSpace="42.5197"/>
			<v:textRect cx="75.7913" cy="585.354" width="151.59" height="19.8425"/>
			<rect x="0" y="575.433" width="151.583" height="19.8425" class="st15"/>
			<text x="11.88" y="588.95" class="st14" v:langID="2057"><v:paragraph v:horizAlign="1"/><v:tabList/>Arrows show flow of data.</text>		</g>
	</g>
</svg>
