<svg xmlns:xlink="http://www.w3.org/1999/xlink" xmlns="http://www.w3.org/2000/svg" xmlns:ev="http://www.w3.org/2001/xml-events" height="804" width="1132" viewBox="0 0 1132 804"><style type="text/css"><![CDATA[
.st5 {fill:#000000;font-family:Arial;font-size:10pt}
.st4 {fill:#1f6391;font-family:Arial;font-size:10pt}
.st6 {fill:#ffffff;font-family:Arial;font-size:10pt;font-weight:bold}
.st3 {fill:#ffffff;font-family:Arial;font-size:10pt}
.st1 {fill:#ffffff;font-family:Arial;font-size:11pt}
.st11 {fill:#ffffff;font-family:Arial;font-size:9.25pt}
.st2 {font-family:MS Shell Dlg 2}
.st7 {font-size:11pt;text-decoration:underline}
.st9 {font-size:11pt}
.st10 {font-weight:normal}
.st8 {text-decoration:underline}
]]></style><defs/><g transform="translate(5,5)" id="page1"><rect x="0" height="794" fill="#ffffff" y="0" width="1123" stroke="#808080"/><g transform="translate(215,140.74)" id="table1"><g><path d="M0,0L184,0L184,48.3L0,48.3L0,0z" fill="#3498db" stroke="#7e7e7e"/><text class="st1"><tspan class="st2" x="35" y="29.1">unittest.TestCase</tspan></text></g></g><g transform="translate(137,269)" id="table2"><g><path d="M0,0L340,0L340,52.6L0,52.6L0,0z" fill="#3498db" stroke="#7e7e7e"/><text class="st3"><tspan x="91" y="30.3">AutoreductionTestDatabase</tspan></text></g><g><path d="M0,52.6L340,52.6L340,82.6L0,82.6L0,52.6z" fill="#e8eff8" stroke="#7e7e7e"/><text class="st4"><tspan x="110" y="71.6">+ transactions : dict </tspan></text></g><g><path d="M0,82.6L340,82.6L340,210L0,210L0,82.6z" fill="#ffffff" stroke="#7e7e7e"/><text class="st4"><tspan x="118" y="102.3">+ setUpClass(cls)</tspan><tspan x="113" y="118.3">+ default_populate()</tspan><tspan x="21" y="134.3">+ add_data(data : DatabaseRecord) : transaction_id</tspan><tspan x="29" y="150.3">+ remove_data(data=None, transaction_id=None)</tspan><tspan x="85" y="166.3">+ query_database(query : str)</tspan><tspan x="120" y="182.3">+ clear_all_data()</tspan><tspan x="108" y="198.3">+ tearDownClass(cls)</tspan></text></g></g><g transform="translate(855,294.66)" id="table3"><g><path d="M0,0L197.1,0L197.1,48.5L0,48.5L0,0z" fill="#3498db" stroke="#7e7e7e"/><text class="st3"><tspan x="51" y="28.2">DatabaseRecord</tspan></text></g><g><path d="M0,48.5L197.1,48.5L197.1,110.2L0,110.2L0,48.5z" fill="#e8eff8" stroke="#7e7e7e"/><text class="st4"><tspan x="46" y="75.3">+ table_name : str</tspan><tspan x="64" y="91.3">+ data : dict</tspan></text></g><g><path d="M0,110.2L197.1,110.2L197.1,158.6L0,158.6L0,110.2z" fill="#ffffff" stroke="#7e7e7e"/><text class="st4"><tspan x="16" y="138.4">+ __init__(table_name, data)</tspan></text></g></g><g transform="translate(477,373.98)" id="shape4"><path d="M0,0L378,0" stroke-dasharray="6,4" fill="none" stroke="#2d85c1"/><path d="M12,6L0,0L12,-6" stroke-linecap="round" stroke-width="1" stroke-linejoin="round" fill="none" stroke="#2d85c1"/><path d="M366,-6L378,0L366,6" stroke-linecap="round" stroke-width="1" stroke-linejoin="round" fill="none" stroke="#2d85c1"/><text class="st5"><tspan x="25" y="-11">Uses DatabaseRecord to model a record in the database</tspan></text></g><g transform="translate(557,38.68)"><path d="M262.7,58.7M262.7,58.7M262.7,58.7M262.7,58.7M262.7,58.7M262.7,58.7M262.7,58.7M262.7,58.7" fill="none" id="shape5" stroke="#2da2bf"/><g id="shape6"><path d="M0,0L0,117.3L525.5,117.3L525.5,34.2L451.8,0L0,0z" fill="#007fcc"/><path d="M0,0L0,117.3L525.5,117.3L525.5,34.2L451.8,0L0,0zM525.5,34.2L451.8,34.2L451.8,0" fill="none" stroke="#2da2bf"/><text class="st6"><tspan class="st7" x="162.2" y="35.7">AutoreductionTestDatabase</tspan><tspan class="st8">:</tspan><tspan class="st9" x="134.2" y="53.7">setUpClass</tspan><tspan>: </tspan><tspan class="st10">Initialise the databse schema</tspan><tspan class="st9" x="50.2" y="71.7">tearDownClass</tspan><tspan>: </tspan><tspan class="st10">delete schema (or clear depending on execution time)</tspan><tspan class="st9" x="20.2" y="89.7">transactions</tspan><tspan>: </tspan><tspan class="st10">a dictionary of key (unique number), value (DatabaseRecord object) </tspan></text></g></g><g transform="translate(62,612)" id="table7"><g><path d="M0,0L122,0L122,70L0,70L0,0z" fill="#3498db" stroke="#7e7e7e"/><text class="st11"><tspan class="st2" x="13" y="18">An autoreduction </tspan><tspan class="st2" x="13" y="32">test that requires </tspan><tspan class="st2" x="32" y="46">a database </tspan><tspan class="st2" x="39" y="60">instance</tspan></text></g></g><g transform="translate(430,612)" id="table8"><g><path d="M0,0L122,0L122,70L0,70L0,0z" fill="#3498db" stroke="#7e7e7e"/><text class="st11"><tspan class="st2" x="13" y="18">An autoreduction </tspan><tspan class="st2" x="13" y="32">test that requires </tspan><tspan class="st2" x="32" y="46">a database </tspan><tspan class="st2" x="39" y="60">instance</tspan></text></g></g><g transform="translate(246,612)" id="table9"><g><path d="M0,0L122,0L122,70L0,70L0,0z" fill="#3498db" stroke="#7e7e7e"/><text class="st11"><tspan class="st2" x="13" y="18">An autoreduction </tspan><tspan class="st2" x="13" y="32">test that requires </tspan><tspan class="st2" x="32" y="46">a database </tspan><tspan class="st2" x="39" y="60">instance</tspan></text></g></g><g transform="translate(307,189)" id="shape10"><path d="M0,6.9L0,80" fill="none" stroke="#2d85c1"/><path d="M0,0L-4,6.9L4,6.9L0,0" stroke-linecap="round" stroke-width="1" stroke-linejoin="round" fill="none" stroke="#2d85c1"/></g><g transform="translate(307,478.96)" id="shape11"><path d="M-5.6,4.1L-184,133" fill="none" stroke="#2d85c1"/><path d="M0,0L-8,.8L-3.3,7.3L0,0" stroke-linecap="round" stroke-width="1" stroke-linejoin="round" fill="none" stroke="#2d85c1"/></g><g transform="translate(307,478.96)" id="shape12"><path d="M0,6.9L0,133" fill="none" stroke="#2d85c1"/><path d="M0,0L-4,6.9L4,6.9L0,0" stroke-linecap="round" stroke-width="1" stroke-linejoin="round" fill="none" stroke="#2d85c1"/></g><g transform="translate(307,478.96)" id="shape13"><path d="M5.6,4.1L184,133" fill="none" stroke="#2d85c1"/><path d="M0,0L3.3,7.3L8,.8L0,0" stroke-linecap="round" stroke-width="1" stroke-linejoin="round" fill="none" stroke="#2d85c1"/></g></g></svg>